# xmcd
#
# Track frame offsets:
#	150
#	19734
#	38494
#	53541
#	68781
#	84341
#	103218
#	117253
#	132945
#	145729
#
# Disc length: 2210 seconds
#
# Revision: 1
# Processed by: cddbd v1.5.2PL0 Copyright (c) Steve Scherf et al.
# Submitted via: EZCDAudioConverter 9.0.4.1
#
DISCID=7c08a00a
DTITLE=Kjell Gustavsson R&B Orchestra - Down At The Saloon
DYEAR=2011
DGENRE=
TTITLE0=Golddigger
TTITLE1=Blues Is Just A Passing Bird
TTITLE2=Spellbound
TTITLE3=Where The River Flow
TTITLE4=Easy Come Easy Go
TTITLE5=Down At The Saloon
TTITLE6=Oh Friday
TTITLE7=Tejano
TTITLE8=So Cold And Lonely
TTITLE9=Heart Of Stone
EXTD=
EXTT0=
EXTT1=
EXTT2=
EXTT3=
EXTT4=
EXTT5=
EXTT6=
EXTT7=
EXTT8=
EXTT9=
PLAYORDER=
